<svg xmlns="http://www.w3.org/2000/svg" xmlns:xlink="http://www.w3.org/1999/xlink" width="200.453" height="41.427" viewBox="0 0 200.453 41.427">
  <defs>
    <clipPath id="clip-path">
      <rect id="Rectangle_15638" data-name="Rectangle 15638" width="32.494" height="38.283" fill="none"/>
    </clipPath>
    <clipPath id="clip-path-3">
      <rect id="Rectangle_15635" data-name="Rectangle 15635" width="17.347" height="4.337" fill="none"/>
    </clipPath>
    <clipPath id="clip-path-4">
      <rect id="Rectangle_15636" data-name="Rectangle 15636" width="17.442" height="4.337" fill="none"/>
    </clipPath>
  </defs>
  <g id="Logo" transform="translate(-99 -527)">
    <g id="Logo-2" data-name="Logo" transform="translate(15.691 15.363)">
      <path id="Path_174" data-name="Path 174" d="M27.9,0H22.788a3.981,3.981,0,0,0-3.214,1.786,4.945,4.945,0,0,1-.82.873A4.677,4.677,0,0,1,15.69,3.8h-.038a4.982,4.982,0,0,1-3.469-1.38,4.482,4.482,0,0,1-.56-.637A3.976,3.976,0,0,0,8.41,0H3.3A3.523,3.523,0,0,0,0,3.714v34a3.524,3.524,0,0,0,3.3,3.714H8.429a3.915,3.915,0,0,0,3.181-1.768,4.549,4.549,0,0,1,.639-.718,4.844,4.844,0,0,1,3.3-1.317A4.978,4.978,0,0,1,19.015,39a4.431,4.431,0,0,1,.571.654,3.917,3.917,0,0,0,3.182,1.769H27.9A3.524,3.524,0,0,0,31.2,37.712v-34A3.523,3.523,0,0,0,27.9,0" transform="translate(83.309 511.637)" fill="#162458"/>
      <g id="Group_32723" data-name="Group 32723" transform="translate(85.899 514.78)">
        <g id="Group_32722" data-name="Group 32722" clip-path="url(#clip-path)">
          <g id="Group_32721" data-name="Group 32721" transform="translate(0 0)">
            <g id="Group_32720" data-name="Group 32720" clip-path="url(#clip-path)">
              <path id="Path_167" data-name="Path 167" d="M29.062,0H23.736a4.3,4.3,0,0,0-3.348,1.65,4.842,4.842,0,0,1-.854.807,5.25,5.25,0,0,1-3.192,1.057H16.3a5.562,5.562,0,0,1-3.614-1.276,4.34,4.34,0,0,1-.583-.589A4.292,4.292,0,0,0,8.759,0H3.432A3.432,3.432,0,0,0,0,3.432V34.851a3.433,3.433,0,0,0,3.432,3.432H8.779a4.226,4.226,0,0,0,3.313-1.634,4.414,4.414,0,0,1,.666-.664A5.41,5.41,0,0,1,16.2,34.768a5.558,5.558,0,0,1,3.606,1.276,4.285,4.285,0,0,1,.6.6,4.228,4.228,0,0,0,3.315,1.634h5.346a3.432,3.432,0,0,0,3.432-3.432V3.432A3.432,3.432,0,0,0,29.062,0" transform="translate(0 0)" fill="#395ff1"/>
              <g id="Group_32716" data-name="Group 32716" transform="translate(7.323 8.838)">
                <g id="Group_32715" data-name="Group 32715">
                  <g id="Group_32714" data-name="Group 32714" clip-path="url(#clip-path-3)">
                    <path id="Path_168" data-name="Path 168" d="M15.178,4.337H2.168A2.168,2.168,0,0,1,2.168,0h13.01a2.168,2.168,0,0,1,0,4.337" transform="translate(0 0)" fill="#fff"/>
                  </g>
                </g>
              </g>
              <path id="Path_169" data-name="Path 169" d="M11.653,4.337H2.169A2.168,2.168,0,1,1,2.169,0h9.485a2.168,2.168,0,1,1,0,4.337" transform="translate(14.138 16.973)" fill="rgba(255,255,255,0.5)"/>
              <g id="Group_32719" data-name="Group 32719" transform="translate(7.227 25.108)">
                <g id="Group_32718" data-name="Group 32718">
                  <g id="Group_32717" data-name="Group 32717" clip-path="url(#clip-path-4)">
                    <path id="Path_170" data-name="Path 170" d="M15.274,4.337H2.168A2.168,2.168,0,0,1,2.168,0H15.274a2.168,2.168,0,0,1,0,4.337" transform="translate(0 0)" fill="#fff"/>
                  </g>
                </g>
              </g>
              <path id="Path_171" data-name="Path 171" d="M4.987,4.337H2.168A2.168,2.168,0,0,1,2.168,0H4.987a2.168,2.168,0,0,1,0,4.337" transform="translate(4.535 16.973)" fill="rgba(255,255,255,0.5)"/>
            </g>
          </g>
        </g>
      </g>
    </g>
    <path id="Path_175" data-name="Path 175" d="M22.047,0H17.469L6.234-18.2H6.109l.078,1.016q.219,2.906.219,5.313V0H3.016V-22.844H7.547L18.75-4.734h.094q-.031-.359-.125-2.617t-.094-3.523V-22.844h3.422ZM36.359-14.5H32.141V0H28.453V-14.5H25.609v-1.719l2.844-1.125v-1.125a6.288,6.288,0,0,1,1.438-4.539,5.877,5.877,0,0,1,4.391-1.477,11.717,11.717,0,0,1,3.813.641l-.969,2.781a8.465,8.465,0,0,0-2.594-.437,2.111,2.111,0,0,0-1.82.773,3.9,3.9,0,0,0-.57,2.32v1.125h4.219ZM45.734-2.656a8.929,8.929,0,0,0,2.688-.422V-.312a7.412,7.412,0,0,1-1.57.445,10.819,10.819,0,0,1-1.992.18q-5.219,0-5.219-5.5V-14.5H37.281v-1.625l2.531-1.344,1.25-3.656h2.266v3.844H48.25V-14.5H43.328v9.25a2.6,2.6,0,0,0,.664,1.961A2.421,2.421,0,0,0,45.734-2.656ZM68.469,0H64.734V-19.641H58.016v-3.2H75.188v3.2H68.469Zm13.5,0H78.3V-17.281h3.672ZM78.078-21.859a2.033,2.033,0,0,1,.539-1.516,2.1,2.1,0,0,1,1.539-.531,2.056,2.056,0,0,1,1.508.531,2.033,2.033,0,0,1,.539,1.516,2,2,0,0,1-.539,1.477,2.038,2.038,0,0,1-1.508.539,2.082,2.082,0,0,1-1.539-.539A2,2,0,0,1,78.078-21.859ZM90.766-9.125l2.078-2.594,5.219-5.562H102.3L95.344-9.859,102.734,0H98.422L92.875-7.578,90.859-5.922V0H87.219V-24.312h3.641v11.859l-.187,3.328Zm21.188,6.469a8.929,8.929,0,0,0,2.688-.422V-.312a7.412,7.412,0,0,1-1.57.445,10.819,10.819,0,0,1-1.992.18q-5.219,0-5.219-5.5V-14.5H103.5v-1.625l2.531-1.344,1.25-3.656h2.266v3.844h4.922V-14.5h-4.922v9.25a2.6,2.6,0,0,0,.664,1.961A2.421,2.421,0,0,0,111.953-2.656Zm3.516-14.625h4l3.516,9.8a18.589,18.589,0,0,1,1.063,3.938h.125a16.424,16.424,0,0,1,.516-2.086q.375-1.227,3.969-11.648h3.969L125.234,2.3q-2.016,5.391-6.719,5.391a10.574,10.574,0,0,1-2.375-.266V4.516a8.6,8.6,0,0,0,1.891.188q2.656,0,3.734-3.078L122.406,0ZM150.453,0h-3.687V-10.625a4.65,4.65,0,0,0-.8-2.984,3.11,3.11,0,0,0-2.555-.984A4.062,4.062,0,0,0,140-13.219q-1.078,1.375-1.078,4.609V0H135.25V-17.281h2.875l.516,2.266h.188a5.112,5.112,0,0,1,2.219-1.906,7.435,7.435,0,0,1,3.188-.672q6.219,0,6.219,6.328Z" transform="translate(149 560)" fill="#fff"/>
  </g>
</svg>
