<svg xmlns="http://www.w3.org/2000/svg" width="350.001" height="522.999" viewBox="0 0 350.001 522.999">
  <g id="Group_32724" data-name="Group 32724" transform="translate(-20 -140.001)">
    <path id="Subtraction_4" data-name="Subtraction 4" d="M-6806-1108h-340a5.006,5.006,0,0,1-5-5v-11.07a7,7,0,0,0,4.272-2.324A6.991,6.991,0,0,0-7145-1131a6.991,6.991,0,0,0-1.729-4.6,7,7,0,0,0-4.272-2.324v-348.143a7,7,0,0,0,4.272-2.324A6.991,6.991,0,0,0-7145-1493a6.99,6.99,0,0,0-1.729-4.6,7,7,0,0,0-4.272-2.325V-1626a5.006,5.006,0,0,1,5-5h340a5.006,5.006,0,0,1,5,5v126a7.009,7.009,0,0,0-7,7,7.009,7.009,0,0,0,7,7v348a7.009,7.009,0,0,0-7,7,7.009,7.009,0,0,0,7,7v11A5.006,5.006,0,0,1-6806-1108Z" transform="translate(7171 1771)" fill="#fff"/>
    <path id="Path_62" data-name="Path 62" d="M7205,1878h337.641" transform="translate(-7179 -1600)" fill="none" stroke="#50566a" stroke-width="1" stroke-dasharray="3" opacity="0.2"/>
    <path id="Path_63" data-name="Path 63" d="M7205,1878h337.641" transform="translate(-7179 -1238)" fill="none" stroke="#50566a" stroke-width="1" stroke-dasharray="3" opacity="0.2"/>
  </g>
</svg>
