<svg width="36" height="36" viewBox="0 0 36 36" fill="none" xmlns="http://www.w3.org/2000/svg">
<path d="M33.87 8.32L28 2.42C27.6121 2.03407 27.0872 1.81741 26.54 1.81741C25.9928 1.81741 25.4679 2.03407 25.08 2.42L4.27 23.2L2.37 31.4C2.30446 31.6998 2.3067 32.0104 2.37658 32.3091C2.44645 32.6079 2.58218 32.8873 2.77386 33.1269C2.96554 33.3665 3.20833 33.5603 3.48448 33.694C3.76063 33.8278 4.06317 33.8981 4.37 33.9C4.51297 33.9144 4.65703 33.9144 4.8 33.9L13.09 32L33.87 11.24C34.2559 10.8521 34.4726 10.3272 34.4726 9.78C34.4726 9.23282 34.2559 8.70789 33.87 8.32ZM12.09 30.2L4.32 31.83L6.09 24.21L26.48 3.79L32.38 9.79L12.09 30.2Z" fill="black"/>
</svg>
