<svg width="26" height="26" viewBox="0 0 26 26" fill="none" xmlns="http://www.w3.org/2000/svg">
<path d="M5 6C5.55229 6 6 5.55229 6 5C6 4.44772 5.55229 4 5 4C4.44772 4 4 4.44772 4 5C4 5.55229 4.44772 6 5 6Z" fill="white"/>
<path d="M24.66 11.91L13.33 0.6C13.146 0.412213 12.9267 0.262561 12.6847 0.159606C12.4428 0.0566516 12.1829 0.00241487 11.92 0H2C1.46957 0 0.960859 0.210714 0.585786 0.585786C0.210714 0.960859 0 1.46957 0 2V11.92C0.00223279 12.4496 0.214412 12.9566 0.59 13.33L11.92 24.64C12.1057 24.826 12.3263 24.9735 12.5691 25.0741C12.8119 25.1748 13.0722 25.2266 13.335 25.2266C13.5978 25.2266 13.8581 25.1748 14.1009 25.0741C14.3437 24.9735 14.5643 24.826 14.75 24.64L24.65 14.74C24.8366 14.5549 24.9849 14.3349 25.0864 14.0924C25.1879 13.85 25.2406 13.5899 25.2416 13.3271C25.2425 13.0642 25.1916 12.8038 25.0918 12.5607C24.992 12.3175 24.8453 12.0964 24.66 11.91ZM13.35 23.23L2 11.91V2H11.92L23.25 13.33L13.35 23.23Z" fill="white"/>
</svg>
