<svg xmlns="http://www.w3.org/2000/svg" width="21.5" height="17.5" viewBox="0 0 21.5 17.5">
  <g id="ic-transaction-history-1" transform="translate(-1.25 -3.25)">
    <path id="Path_78" data-name="Path 78" d="M21.5,12H16a3.946,3.946,0,0,1-4,3,3.946,3.946,0,0,1-4-3H2.5" fill="none" stroke="#395ff1" stroke-linecap="round" stroke-linejoin="round" stroke-width="1.5"/>
    <path id="Path_79" data-name="Path 79" d="M5.5,5.1,2,12v6a2.006,2.006,0,0,0,2,2H20a2,2,0,0,0,2-2V12L18.6,5.1A2,2,0,0,0,16.8,4H7.2A2,2,0,0,0,5.4,5.1Z" fill="none" stroke="#395ff1" stroke-linecap="round" stroke-linejoin="round" stroke-width="1.5"/>
  </g>
</svg>
