<svg width="36" height="36" viewBox="0 0 36 36" fill="none" xmlns="http://www.w3.org/2000/svg">
<path d="M9 10C9.55229 10 10 9.55229 10 9C10 8.44772 9.55229 8 9 8C8.44772 8 8 8.44772 8 9C8 9.55229 8.44772 10 9 10Z" fill="white"/>
<path d="M28.66 15.91L17.33 4.6C17.146 4.41221 16.9267 4.26256 16.6847 4.15961C16.4428 4.05665 16.1829 4.00241 15.92 4H6C5.46957 4 4.96086 4.21071 4.58579 4.58579C4.21071 4.96086 4 5.46957 4 6V15.92C4.00223 16.4496 4.21441 16.9566 4.59 17.33L15.92 28.64C16.1057 28.826 16.3263 28.9735 16.5691 29.0741C16.8119 29.1748 17.0722 29.2266 17.335 29.2266C17.5978 29.2266 17.8581 29.1748 18.1009 29.0741C18.3437 28.9735 18.5643 28.826 18.75 28.64L28.65 18.74C28.8366 18.5549 28.9849 18.3349 29.0864 18.0924C29.1879 17.85 29.2406 17.5899 29.2416 17.3271C29.2425 17.0642 29.1916 16.8038 29.0918 16.5607C28.992 16.3175 28.8453 16.0964 28.66 15.91ZM17.35 27.23L6 15.91V6H15.92L27.25 17.33L17.35 27.23Z" fill="white"/>
</svg>
