<svg xmlns="http://www.w3.org/2000/svg" width="18.5" height="18.5" viewBox="0 0 18.5 18.5">
  <g id="ic-upload-image" transform="translate(-2.75 -2.75)">
    <path id="Path_64" data-name="Path 64" d="M18.611,3.5H5.389A1.889,1.889,0,0,0,3.5,5.389V18.611A1.889,1.889,0,0,0,5.389,20.5H18.611A1.889,1.889,0,0,0,20.5,18.611V5.389A1.889,1.889,0,0,0,18.611,3.5Z" fill="none" stroke="#395ff1" stroke-linecap="round" stroke-linejoin="round" stroke-width="1.5"/>
    <path id="Path_65" data-name="Path 65" d="M9.917,11.667a1.75,1.75,0,1,0-1.75-1.75A1.75,1.75,0,0,0,9.917,11.667Z" transform="translate(-1.067 -1.067)" fill="none" stroke="#395ff1" stroke-linecap="round" stroke-linejoin="round" stroke-width="1.5"/>
    <path id="Path_66" data-name="Path 66" d="M19.8,16.917l-4.06-5.25L4.667,23.333" transform="translate(0 -4)" fill="none" stroke="#395ff1" stroke-linecap="round" stroke-linejoin="round" stroke-width="1.5"/>
  </g>
</svg>
