<svg xmlns="http://www.w3.org/2000/svg" width="14" height="15" viewBox="0 0 14 15">
  <g id="ic_search" transform="translate(-184 -337)">
    <rect id="Rectangle_15269" data-name="Rectangle 15269" width="14" height="15" transform="translate(184 337)" fill="#1b1e2a"/>
    <g id="Search" transform="translate(183.543 336.93)">
      <path id="Shape" d="M13.46,14.733h0a.537.537,0,0,1-.367-.145L9.71,11.205a6.127,6.127,0,0,1-3.541,1.122,6.22,6.22,0,0,1-2.682-.611A6.167,6.167,0,0,1,.036,5.508a6.164,6.164,0,1,1,10.5,5l3.319,3.3v.018a.539.539,0,0,1-.394.906ZM6.2,1.17A5.028,5.028,0,0,0,2.645,9.754,5.029,5.029,0,0,0,9.756,2.643,5,5,0,0,0,6.2,1.17Z" transform="translate(0.457 0.143)" fill="#50566a"/>
    </g>
  </g>
</svg>
